<svg width="37" height="21" viewBox="0 0 37 21" fill="none" xmlns="http://www.w3.org/2000/svg">
<mask id="path-1-outside-1_6390_110" maskUnits="userSpaceOnUse" x="0" y="0" width="37" height="21" fill="black">
<rect fill="white" width="37" height="21"/>
<path d="M8.568 19.288C7 19.288 5.656 18.92 4.536 18.184C3.432 17.448 2.576 16.432 1.968 15.136C1.376 13.824 1.08 12.312 1.08 10.6C1.08 8.888 1.376 7.384 1.968 6.088C2.576 4.776 3.432 3.752 4.536 3.016C5.656 2.28 7 1.912 8.568 1.912C10.12 1.912 11.448 2.28 12.552 3.016C13.672 3.752 14.528 4.776 15.12 6.088C15.728 7.384 16.032 8.888 16.032 10.6C16.032 12.312 15.728 13.824 15.12 15.136C14.528 16.432 13.672 17.448 12.552 18.184C11.448 18.92 10.12 19.288 8.568 19.288ZM8.544 16.384C9.376 16.384 10.104 16.152 10.728 15.688C11.352 15.208 11.84 14.536 12.192 13.672C12.544 12.808 12.72 11.784 12.72 10.6C12.72 9.4 12.544 8.376 12.192 7.528C11.84 6.664 11.352 6 10.728 5.536C10.104 5.072 9.376 4.84 8.544 4.84C7.728 4.84 7 5.072 6.36 5.536C5.736 6 5.248 6.664 4.896 7.528C4.544 8.376 4.368 9.4 4.368 10.6C4.368 11.784 4.544 12.808 4.896 13.672C5.248 14.536 5.736 15.208 6.36 15.688C7 16.152 7.728 16.384 8.544 16.384ZM17.9182 19V16.624C18.9262 15.808 19.9102 14.992 20.8702 14.176C21.8302 13.36 22.6942 12.552 23.4622 11.752C24.2302 10.936 24.8302 10.144 25.2622 9.376C25.7102 8.608 25.9342 7.864 25.9342 7.144C25.9342 6.696 25.8542 6.288 25.6942 5.92C25.5342 5.536 25.2862 5.232 24.9502 5.008C24.6142 4.768 24.1662 4.648 23.6062 4.648C23.0622 4.648 22.5982 4.776 22.2142 5.032C21.8302 5.288 21.5422 5.632 21.3502 6.064C21.1582 6.48 21.0622 6.952 21.0622 7.48H17.9422C17.9742 6.248 18.2462 5.216 18.7582 4.384C19.2702 3.552 19.9582 2.936 20.8222 2.536C21.6862 2.12 22.6462 1.912 23.7022 1.912C24.8862 1.912 25.8782 2.136 26.6782 2.584C27.4942 3.016 28.1102 3.608 28.5262 4.36C28.9582 5.112 29.1742 5.976 29.1742 6.952C29.1742 7.688 29.0382 8.408 28.7662 9.112C28.5102 9.816 28.1502 10.504 27.6862 11.176C27.2222 11.832 26.6942 12.464 26.1022 13.072C25.5102 13.68 24.8942 14.264 24.2542 14.824C23.6302 15.368 23.0222 15.88 22.4302 16.36H29.5582V19H17.9182ZM33.1791 19.12C32.5711 19.12 32.0831 18.944 31.7151 18.592C31.3471 18.224 31.1631 17.776 31.1631 17.248C31.1631 16.72 31.3471 16.28 31.7151 15.928C32.0831 15.56 32.5711 15.376 33.1791 15.376C33.7711 15.376 34.2511 15.56 34.6191 15.928C34.9871 16.28 35.1711 16.72 35.1711 17.248C35.1711 17.776 34.9871 18.224 34.6191 18.592C34.2511 18.944 33.7711 19.12 33.1791 19.12Z"/>
</mask>
<path d="M4.536 18.184L3.98129 19.0161L3.98682 19.0197L4.536 18.184ZM1.968 15.136L1.05649 15.5473L1.05954 15.554L1.06268 15.5607L1.968 15.136ZM1.968 6.088L1.06068 5.66753L1.0584 5.6725L1.968 6.088ZM4.536 3.016L3.98681 2.18028L3.9813 2.18395L4.536 3.016ZM12.552 3.016L11.9973 3.84807L12.0028 3.85171L12.552 3.016ZM15.12 6.088L14.2085 6.49929L14.2115 6.50603L14.2147 6.51272L15.12 6.088ZM15.12 15.136L14.2127 14.7155L14.2104 14.7205L15.12 15.136ZM12.552 18.184L12.0028 17.3483L11.9973 17.3519L12.552 18.184ZM10.728 15.688L11.3247 16.4905L11.3312 16.4856L11.3377 16.4806L10.728 15.688ZM12.192 13.672L11.2659 13.2947L12.192 13.672ZM12.192 7.528L11.2659 7.9053L11.2684 7.91138L12.192 7.528ZM10.728 5.536L11.3247 4.73354H11.3247L10.728 5.536ZM6.36 5.536L5.77299 4.72633L5.7633 4.73354L6.36 5.536ZM4.896 7.528L5.81961 7.91139L5.82209 7.9053L4.896 7.528ZM6.36 15.688L5.75029 16.4806L5.76154 16.4893L5.77303 16.4976L6.36 15.688ZM8.568 18.288C7.16129 18.288 6.01589 17.9599 5.08518 17.3483L3.98682 19.0197C5.29611 19.8801 6.83871 20.288 8.568 20.288V18.288ZM5.0907 17.3519C4.15052 16.7252 3.41015 15.8556 2.87332 14.7113L1.06268 15.5607C1.74185 17.0084 2.71348 18.1708 3.9813 19.0161L5.0907 17.3519ZM2.87951 14.7247C2.35582 13.5641 2.08 12.1967 2.08 10.6H0.08C0.08 12.4273 0.396178 14.0839 1.05649 15.5473L2.87951 14.7247ZM2.08 10.6C2.08 9.00296 2.35594 7.64549 2.8776 6.50349L1.0584 5.6725C0.396057 7.12251 0.08 8.77304 0.08 10.6H2.08ZM2.87531 6.50846C3.4131 5.34797 4.15353 4.47283 5.0907 3.84805L3.9813 2.18395C2.71047 3.03117 1.7389 4.20403 1.06069 5.66754L2.87531 6.50846ZM5.08518 3.85171C6.01589 3.24009 7.16129 2.912 8.568 2.912V0.912C6.83871 0.912 5.29611 1.31991 3.98682 2.18029L5.08518 3.85171ZM8.568 2.912C9.95685 2.912 11.0839 3.23914 11.9973 3.84805L13.1067 2.18395C11.8121 1.32086 10.2832 0.912 8.568 0.912V2.912ZM12.0028 3.85171C12.9524 4.47572 13.6885 5.34692 14.2085 6.49929L16.0315 5.67671C15.3675 4.20508 14.3916 3.02828 13.1012 2.18029L12.0028 3.85171ZM14.2147 6.51272C14.7493 7.65232 15.032 9.00643 15.032 10.6H17.032C17.032 8.76957 16.7067 7.11568 16.0253 5.66328L14.2147 6.51272ZM15.032 10.6C15.032 12.1932 14.7494 13.5573 14.2127 14.7155L16.0273 15.5565C16.7066 14.0907 17.032 12.4308 17.032 10.6H15.032ZM14.2104 14.7205C13.6914 15.8566 12.9555 16.7223 12.0028 17.3483L13.1012 19.0197C14.3885 18.1737 15.3646 17.0074 16.0296 15.5515L14.2104 14.7205ZM11.9973 17.3519C11.0839 17.9609 9.95685 18.288 8.568 18.288V20.288C10.2832 20.288 11.8121 19.8791 13.1067 19.0161L11.9973 17.3519ZM8.544 17.384C9.57499 17.384 10.5158 17.0919 11.3247 16.4905L10.1313 14.8855C9.69219 15.2121 9.17701 15.384 8.544 15.384V17.384ZM11.3377 16.4806C12.1261 15.8742 12.7117 15.0468 13.1181 14.0493L11.2659 13.2947C10.9683 14.0252 10.5779 14.5418 10.1183 14.8954L11.3377 16.4806ZM13.1181 14.0493C13.5301 13.038 13.72 11.8799 13.72 10.6H11.72C11.72 11.6881 11.5579 12.578 11.2659 13.2947L13.1181 14.0493ZM13.72 10.6C13.72 9.30686 13.5309 8.14522 13.1156 7.14462L11.2684 7.91138C11.5571 8.60678 11.72 9.49314 11.72 10.6H13.72ZM13.1181 7.1507C12.711 6.15153 12.1221 5.32651 11.3247 4.73354L10.1313 6.33846C10.5819 6.67349 10.969 7.17647 11.2659 7.9053L13.1181 7.1507ZM11.3247 4.73354C10.5158 4.13205 9.57499 3.84 8.544 3.84V5.84C9.17701 5.84 9.69219 6.01195 10.1313 6.33846L11.3247 4.73354ZM8.544 3.84C7.52444 3.84 6.58952 4.13443 5.77303 4.72639L6.94697 6.34561C7.41048 6.00956 7.93156 5.84 8.544 5.84V3.84ZM5.7633 4.73354C4.96586 5.32651 4.37698 6.15153 3.96991 7.1507L5.82209 7.9053C6.11902 7.17647 6.50615 6.67349 6.9567 6.33846L5.7633 4.73354ZM3.97241 7.14462C3.55707 8.14522 3.368 9.30686 3.368 10.6H5.368C5.368 9.49314 5.53093 8.60678 5.81959 7.91138L3.97241 7.14462ZM3.368 10.6C3.368 11.8799 3.5579 13.038 3.96991 14.0493L5.82209 13.2947C5.5301 12.578 5.368 11.6881 5.368 10.6H3.368ZM3.96991 14.0493C4.37629 15.0468 4.9619 15.8742 5.75029 16.4806L6.96971 14.8954C6.5101 14.5418 6.11971 14.0252 5.82209 13.2947L3.96991 14.0493ZM5.77303 16.4976C6.58952 17.0896 7.52444 17.384 8.544 17.384V15.384C7.93156 15.384 7.41048 15.2144 6.94697 14.8784L5.77303 16.4976ZM17.9182 19H16.9182V20H17.9182V19ZM17.9182 16.624L17.289 15.8468L16.9182 16.1469V16.624H17.9182ZM23.4622 11.752L24.1836 12.4446L24.1904 12.4374L23.4622 11.752ZM25.2622 9.376L24.3984 8.87213L24.3945 8.8789L24.3906 8.88574L25.2622 9.376ZM25.6942 5.92L24.7711 6.30462L24.7741 6.31169L24.7771 6.31873L25.6942 5.92ZM24.9502 5.008L24.3689 5.82173L24.3821 5.83111L24.3955 5.84005L24.9502 5.008ZM22.2142 5.032L22.7689 5.86405L22.7689 5.86405L22.2142 5.032ZM21.3502 6.064L22.2581 6.48306L22.2611 6.47662L22.264 6.47014L21.3502 6.064ZM21.0622 7.48V8.48H22.0622V7.48H21.0622ZM17.9422 7.48L16.9425 7.45403L16.9159 8.48H17.9422V7.48ZM18.7582 4.384L19.6098 4.9081L18.7582 4.384ZM20.8222 2.536L21.2423 3.44347L21.2492 3.44028L21.256 3.437L20.8222 2.536ZM26.6782 2.584L26.1896 3.45651L26.1999 3.46227L26.2103 3.46779L26.6782 2.584ZM28.5262 4.36L27.6512 4.84406L27.6551 4.85112L27.6591 4.85812L28.5262 4.36ZM28.7662 9.112L27.8334 8.7516L27.8298 8.76089L27.8264 8.77026L28.7662 9.112ZM27.6862 11.176L28.5027 11.7535L28.5091 11.7442L27.6862 11.176ZM26.1022 13.072L26.8187 13.7696L26.1022 13.072ZM24.2542 14.824L24.9113 15.5778L24.9127 15.5766L24.2542 14.824ZM22.4302 16.36L21.8004 15.5832L19.6091 17.36H22.4302V16.36ZM29.5582 16.36H30.5582V15.36H29.5582V16.36ZM29.5582 19V20H30.5582V19H29.5582ZM18.9182 19V16.624H16.9182V19H18.9182ZM18.5474 17.4012C19.5614 16.5804 20.5516 15.7593 21.5178 14.9379L20.2225 13.4141C19.2688 14.2247 18.291 15.0356 17.289 15.8468L18.5474 17.4012ZM21.5178 14.9379C22.5002 14.1029 23.3893 13.2719 24.1836 12.4445L22.7408 11.0595C21.9991 11.8321 21.1602 12.6171 20.2225 13.4141L21.5178 14.9379ZM24.1904 12.4374C24.9997 11.5775 25.653 10.7209 26.1338 9.86626L24.3906 8.88574C24.0074 9.56708 23.4607 10.2945 22.734 11.0666L24.1904 12.4374ZM26.126 9.87987C26.6424 8.9946 26.9342 8.07822 26.9342 7.144H24.9342C24.9342 7.64978 24.778 8.2214 24.3984 8.87213L26.126 9.87987ZM26.9342 7.144C26.9342 6.57482 26.832 6.02898 26.6113 5.52127L24.7771 6.31873C24.8764 6.54702 24.9342 6.81718 24.9342 7.144H26.9342ZM26.6173 5.53538C26.3838 4.97497 26.0103 4.51291 25.5049 4.17595L24.3955 5.84005C24.562 5.95109 24.6846 6.09703 24.7711 6.30462L26.6173 5.53538ZM25.5314 4.19427C24.9749 3.79672 24.3017 3.648 23.6062 3.648V5.648C24.0306 5.648 24.2535 5.73928 24.3689 5.82173L25.5314 4.19427ZM23.6062 3.648C22.9008 3.648 22.2354 3.81604 21.6595 4.19995L22.7689 5.86405C22.961 5.73596 23.2236 5.648 23.6062 5.648V3.648ZM21.6595 4.19995C21.1139 4.56371 20.7033 5.05719 20.4364 5.65786L22.264 6.47014C22.381 6.20681 22.5465 6.01229 22.7689 5.86405L21.6595 4.19995ZM20.4422 5.64494C20.181 6.21092 20.0622 6.82928 20.0622 7.48H22.0622C22.0622 7.07472 22.1354 6.74908 22.2581 6.48306L20.4422 5.64494ZM21.0622 6.48H17.9422V8.48H21.0622V6.48ZM18.9419 7.50597C18.9705 6.40474 19.2114 5.55554 19.6098 4.9081L17.9065 3.8599C17.281 4.87646 16.9779 6.09126 16.9425 7.45403L18.9419 7.50597ZM19.6098 4.9081C20.0217 4.2389 20.5616 3.75862 21.2423 3.44347L20.4021 1.62853C19.3548 2.11338 18.5187 2.8651 17.9065 3.8599L19.6098 4.9081ZM21.256 3.437C21.9714 3.09253 22.781 2.912 23.7022 2.912V0.912C22.5114 0.912 21.4009 1.14747 20.3884 1.635L21.256 3.437ZM23.7022 2.912C24.7637 2.912 25.5762 3.11301 26.1896 3.45651L27.1668 1.71149C26.1802 1.15899 25.0087 0.912 23.7022 0.912V2.912ZM26.2103 3.46779C26.868 3.81598 27.3362 4.27477 27.6512 4.84406L29.4012 3.87594C28.8841 2.94123 28.1204 2.21602 27.1461 1.70021L26.2103 3.46779ZM27.6591 4.85812C27.9935 5.44028 28.1742 6.12844 28.1742 6.952H30.1742C30.1742 5.82355 29.9229 4.78372 29.3933 3.86188L27.6591 4.85812ZM28.1742 6.952C28.1742 7.5616 28.0621 8.15958 27.8334 8.7516L29.699 9.4724C30.0143 8.65641 30.1742 7.8144 30.1742 6.952H28.1742ZM27.8264 8.77026C27.602 9.38725 27.2832 9.99974 26.8633 10.6078L28.5091 11.7442C29.0172 11.0083 29.4183 10.2448 29.706 9.45374L27.8264 8.77026ZM26.8698 10.5985C26.4375 11.2096 25.9433 11.8017 25.3857 12.3744L26.8187 13.7696C27.445 13.1263 28.0068 12.4544 28.5026 11.7535L26.8698 10.5985ZM25.3857 12.3744C24.8123 12.9633 24.2157 13.5289 23.5957 14.0714L24.9127 15.5766C25.5727 14.9991 26.208 14.3967 26.8187 13.7696L25.3857 12.3744ZM23.5971 14.0702C22.9813 14.6071 22.3824 15.1113 21.8004 15.5832L23.06 17.1368C23.662 16.6487 24.2791 16.1289 24.9113 15.5778L23.5971 14.0702ZM22.4302 17.36H29.5582V15.36H22.4302V17.36ZM28.5582 16.36V19H30.5582V16.36H28.5582ZM29.5582 18H17.9182V20H29.5582V18ZM31.7151 18.592L31.008 19.2991L31.0159 19.307L31.0239 19.3146L31.7151 18.592ZM31.7151 15.928L32.4063 16.6506L32.4144 16.643L32.4222 16.6351L31.7151 15.928ZM34.6191 15.928L33.912 16.6351L33.9199 16.643L33.9279 16.6506L34.6191 15.928ZM34.6191 18.592L35.3103 19.3146L35.3184 19.307L35.3262 19.2991L34.6191 18.592ZM33.1791 18.12C32.7755 18.12 32.5531 18.0097 32.4063 17.8694L31.0239 19.3146C31.6132 19.8783 32.3668 20.12 33.1791 20.12V18.12ZM32.4222 17.8849C32.2448 17.7075 32.1631 17.5151 32.1631 17.248H30.1631C30.1631 18.0369 30.4494 18.7405 31.008 19.2991L32.4222 17.8849ZM32.1631 17.248C32.1631 16.9816 32.2436 16.8063 32.4063 16.6506L31.0239 15.2054C30.4507 15.7537 30.1631 16.4584 30.1631 17.248H32.1631ZM32.4222 16.6351C32.5712 16.4862 32.7882 16.376 33.1791 16.376V14.376C32.3541 14.376 31.5951 14.6338 31.008 15.2209L32.4222 16.6351ZM33.1791 16.376C33.5456 16.376 33.7579 16.481 33.912 16.6351L35.3262 15.2209C34.7444 14.639 33.9967 14.376 33.1791 14.376V16.376ZM33.9279 16.6506C34.0907 16.8063 34.1711 16.9816 34.1711 17.248H36.1711C36.1711 16.4584 35.8836 15.7537 35.3103 15.2054L33.9279 16.6506ZM34.1711 17.248C34.1711 17.5151 34.0894 17.7075 33.912 17.8849L35.3262 19.2991C35.8848 18.7405 36.1711 18.0369 36.1711 17.248H34.1711ZM33.9279 17.8694C33.7761 18.0145 33.5585 18.12 33.1791 18.12V20.12C33.9837 20.12 34.7261 19.8735 35.3103 19.3146L33.9279 17.8694Z" fill="#716F73" mask="url(#path-1-outside-1_6390_110)"/>
</svg>
