<svg width="37" height="21" viewBox="0 0 37 21" fill="none" xmlns="http://www.w3.org/2000/svg">
<mask id="path-1-outside-1_6390_116" maskUnits="userSpaceOnUse" x="0" y="0" width="37" height="21" fill="black">
<rect fill="white" width="37" height="21"/>
<path d="M8.568 19.288C7 19.288 5.656 18.92 4.536 18.184C3.432 17.448 2.576 16.432 1.968 15.136C1.376 13.824 1.08 12.312 1.08 10.6C1.08 8.888 1.376 7.384 1.968 6.088C2.576 4.776 3.432 3.752 4.536 3.016C5.656 2.28 7 1.912 8.568 1.912C10.12 1.912 11.448 2.28 12.552 3.016C13.672 3.752 14.528 4.776 15.12 6.088C15.728 7.384 16.032 8.888 16.032 10.6C16.032 12.312 15.728 13.824 15.12 15.136C14.528 16.432 13.672 17.448 12.552 18.184C11.448 18.92 10.12 19.288 8.568 19.288ZM8.544 16.384C9.376 16.384 10.104 16.152 10.728 15.688C11.352 15.208 11.84 14.536 12.192 13.672C12.544 12.808 12.72 11.784 12.72 10.6C12.72 9.4 12.544 8.376 12.192 7.528C11.84 6.664 11.352 6 10.728 5.536C10.104 5.072 9.376 4.84 8.544 4.84C7.728 4.84 7 5.072 6.36 5.536C5.736 6 5.248 6.664 4.896 7.528C4.544 8.376 4.368 9.4 4.368 10.6C4.368 11.784 4.544 12.808 4.896 13.672C5.248 14.536 5.736 15.208 6.36 15.688C7 16.152 7.728 16.384 8.544 16.384ZM23.9639 19.288C22.8759 19.288 21.8759 19.088 20.9639 18.688C20.0519 18.288 19.3239 17.68 18.7799 16.864C18.2359 16.048 17.9479 15.016 17.9159 13.768H21.1079C21.1239 14.296 21.2439 14.776 21.4679 15.208C21.6919 15.624 22.0119 15.96 22.4279 16.216C22.8599 16.456 23.3799 16.576 23.9879 16.576C24.5479 16.576 25.0199 16.464 25.4039 16.24C25.8039 16.016 26.1079 15.72 26.3159 15.352C26.5239 14.984 26.6279 14.56 26.6279 14.08C26.6279 13.52 26.4919 13.048 26.2199 12.664C25.9479 12.28 25.5639 11.992 25.0679 11.8C24.5879 11.592 24.0279 11.488 23.3879 11.488H22.1399V8.824H23.3879C24.1719 8.824 24.8279 8.648 25.3559 8.296C25.8839 7.928 26.1479 7.384 26.1479 6.664C26.1479 6.056 25.9479 5.568 25.5479 5.2C25.1639 4.832 24.6359 4.648 23.9639 4.648C23.1959 4.648 22.5959 4.872 22.1639 5.32C21.7479 5.768 21.5159 6.32 21.4679 6.976H18.3239C18.3719 5.92 18.6359 5.016 19.1159 4.264C19.5959 3.496 20.2519 2.912 21.0839 2.512C21.9159 2.112 22.8759 1.912 23.9639 1.912C25.1159 1.912 26.0919 2.12 26.8919 2.536C27.6919 2.936 28.2999 3.48 28.7159 4.168C29.1319 4.84 29.3399 5.584 29.3399 6.4C29.3399 7.04 29.2119 7.616 28.9559 8.128C28.7159 8.624 28.3959 9.04 27.9959 9.376C27.5959 9.712 27.1399 9.96 26.6279 10.12C27.2679 10.232 27.8199 10.472 28.2839 10.84C28.7639 11.208 29.1319 11.68 29.3879 12.256C29.6599 12.816 29.7959 13.464 29.7959 14.2C29.7959 15.112 29.5719 15.96 29.1239 16.744C28.6759 17.512 28.0199 18.128 27.1559 18.592C26.2919 19.056 25.2279 19.288 23.9639 19.288ZM33.9057 19.12C33.2977 19.12 32.8097 18.944 32.4417 18.592C32.0737 18.224 31.8897 17.776 31.8897 17.248C31.8897 16.72 32.0737 16.28 32.4417 15.928C32.8097 15.56 33.2977 15.376 33.9057 15.376C34.4977 15.376 34.9777 15.56 35.3457 15.928C35.7137 16.28 35.8977 16.72 35.8977 17.248C35.8977 17.776 35.7137 18.224 35.3457 18.592C34.9777 18.944 34.4977 19.12 33.9057 19.12Z"/>
</mask>
<path d="M4.536 18.184L3.98129 19.0161L3.98682 19.0197L4.536 18.184ZM1.968 15.136L1.05649 15.5473L1.05954 15.554L1.06268 15.5607L1.968 15.136ZM1.968 6.088L1.06068 5.66753L1.0584 5.6725L1.968 6.088ZM4.536 3.016L3.98681 2.18028L3.9813 2.18395L4.536 3.016ZM12.552 3.016L11.9973 3.84807L12.0028 3.85171L12.552 3.016ZM15.12 6.088L14.2085 6.49929L14.2115 6.50603L14.2147 6.51272L15.12 6.088ZM15.12 15.136L14.2127 14.7155L14.2104 14.7205L15.12 15.136ZM12.552 18.184L12.0028 17.3483L11.9973 17.3519L12.552 18.184ZM10.728 15.688L11.3247 16.4905L11.3312 16.4856L11.3377 16.4806L10.728 15.688ZM12.192 13.672L11.2659 13.2947L11.2659 13.2947L12.192 13.672ZM12.192 7.528L11.2659 7.9053L11.2684 7.91138L12.192 7.528ZM10.728 5.536L11.3247 4.73354L11.3247 4.73354L10.728 5.536ZM6.36 5.536L5.77299 4.72633L5.7633 4.73354L6.36 5.536ZM4.896 7.528L5.81961 7.91139L5.82209 7.9053L4.896 7.528ZM6.36 15.688L5.75029 16.4806L5.76154 16.4893L5.77303 16.4976L6.36 15.688ZM8.568 18.288C7.16129 18.288 6.01589 17.9599 5.08518 17.3483L3.98682 19.0197C5.29611 19.8801 6.83871 20.288 8.568 20.288V18.288ZM5.0907 17.3519C4.15052 16.7252 3.41015 15.8556 2.87332 14.7113L1.06268 15.5607C1.74185 17.0084 2.71348 18.1708 3.9813 19.0161L5.0907 17.3519ZM2.87951 14.7247C2.35582 13.5641 2.08 12.1967 2.08 10.6H0.08C0.08 12.4273 0.396178 14.0839 1.05649 15.5473L2.87951 14.7247ZM2.08 10.6C2.08 9.00296 2.35594 7.64549 2.8776 6.50349L1.0584 5.6725C0.396057 7.12251 0.08 8.77304 0.08 10.6H2.08ZM2.87531 6.50846C3.4131 5.34797 4.15353 4.47283 5.0907 3.84805L3.9813 2.18395C2.71047 3.03117 1.7389 4.20403 1.06069 5.66754L2.87531 6.50846ZM5.08518 3.85171C6.01589 3.24009 7.16129 2.912 8.568 2.912V0.912C6.83871 0.912 5.29611 1.31991 3.98682 2.18029L5.08518 3.85171ZM8.568 2.912C9.95685 2.912 11.0839 3.23914 11.9973 3.84805L13.1067 2.18395C11.8121 1.32086 10.2832 0.912 8.568 0.912V2.912ZM12.0028 3.85171C12.9524 4.47572 13.6885 5.34692 14.2085 6.49929L16.0315 5.67671C15.3675 4.20508 14.3916 3.02828 13.1012 2.18029L12.0028 3.85171ZM14.2147 6.51272C14.7493 7.65232 15.032 9.00643 15.032 10.6H17.032C17.032 8.76957 16.7067 7.11568 16.0253 5.66328L14.2147 6.51272ZM15.032 10.6C15.032 12.1932 14.7494 13.5573 14.2127 14.7155L16.0273 15.5565C16.7066 14.0907 17.032 12.4308 17.032 10.6H15.032ZM14.2104 14.7205C13.6914 15.8566 12.9555 16.7223 12.0028 17.3483L13.1012 19.0197C14.3885 18.1737 15.3646 17.0074 16.0296 15.5515L14.2104 14.7205ZM11.9973 17.3519C11.0839 17.9609 9.95685 18.288 8.568 18.288V20.288C10.2832 20.288 11.8121 19.8791 13.1067 19.0161L11.9973 17.3519ZM8.544 17.384C9.57499 17.384 10.5158 17.0919 11.3247 16.4905L10.1313 14.8855C9.69219 15.2121 9.17701 15.384 8.544 15.384V17.384ZM11.3377 16.4806C12.1261 15.8742 12.7117 15.0468 13.1181 14.0493L11.2659 13.2947C10.9683 14.0252 10.5779 14.5418 10.1183 14.8954L11.3377 16.4806ZM13.1181 14.0493C13.5301 13.038 13.72 11.8799 13.72 10.6H11.72C11.72 11.6881 11.5579 12.578 11.2659 13.2947L13.1181 14.0493ZM13.72 10.6C13.72 9.30686 13.5309 8.14522 13.1156 7.14462L11.2684 7.91138C11.5571 8.60678 11.72 9.49313 11.72 10.6H13.72ZM13.1181 7.1507C12.711 6.15153 12.1221 5.32651 11.3247 4.73354L10.1313 6.33846C10.5819 6.67349 10.969 7.17647 11.2659 7.9053L13.1181 7.1507ZM11.3247 4.73354C10.5158 4.13205 9.57499 3.84 8.544 3.84V5.84C9.17701 5.84 9.69219 6.01195 10.1313 6.33846L11.3247 4.73354ZM8.544 3.84C7.52444 3.84 6.58952 4.13443 5.77303 4.72639L6.94697 6.34561C7.41048 6.00956 7.93156 5.84 8.544 5.84V3.84ZM5.7633 4.73354C4.96586 5.32651 4.37698 6.15153 3.96991 7.1507L5.82209 7.9053C6.11902 7.17647 6.50615 6.67349 6.9567 6.33846L5.7633 4.73354ZM3.97241 7.14462C3.55707 8.14522 3.368 9.30686 3.368 10.6H5.368C5.368 9.49313 5.53093 8.60678 5.81959 7.91138L3.97241 7.14462ZM3.368 10.6C3.368 11.8799 3.5579 13.038 3.96991 14.0493L5.82209 13.2947C5.5301 12.578 5.368 11.6881 5.368 10.6H3.368ZM3.96991 14.0493C4.37629 15.0468 4.9619 15.8742 5.75029 16.4806L6.96971 14.8954C6.5101 14.5418 6.11971 14.0252 5.82209 13.2947L3.96991 14.0493ZM5.77303 16.4976C6.58952 17.0896 7.52444 17.384 8.544 17.384V15.384C7.93156 15.384 7.41048 15.2144 6.94697 14.8784L5.77303 16.4976ZM20.9639 18.688L20.5623 19.6038L20.5623 19.6038L20.9639 18.688ZM18.7799 16.864L17.9479 17.4187L17.9479 17.4187L18.7799 16.864ZM17.9159 13.768V12.768H16.89L16.9163 13.7936L17.9159 13.768ZM21.1079 13.768L22.1075 13.7377L22.0781 12.768H21.1079V13.768ZM21.4679 15.208L20.5802 15.6683L20.5838 15.6752L20.5875 15.6821L21.4679 15.208ZM22.4279 16.216L21.9038 17.0677L21.9228 17.0793L21.9423 17.0902L22.4279 16.216ZM25.4039 16.24L24.9153 15.3675L24.9077 15.3718L24.9001 15.3762L25.4039 16.24ZM26.3159 15.352L25.4454 14.8599L25.4454 14.8599L26.3159 15.352ZM26.2199 12.664L27.036 12.086L27.036 12.086L26.2199 12.664ZM25.0679 11.8L24.6703 12.7176L24.6885 12.7254L24.7069 12.7326L25.0679 11.8ZM22.1399 11.488H21.1399V12.488H22.1399V11.488ZM22.1399 8.824V7.824H21.1399V8.824H22.1399ZM25.3559 8.296L25.9106 9.12805L25.9192 9.12231L25.9277 9.1164L25.3559 8.296ZM25.5479 5.2L24.856 5.92199L24.8634 5.92903L24.8709 5.93593L25.5479 5.2ZM22.1639 5.32L21.4441 4.62586L21.4376 4.63264L21.4311 4.63955L22.1639 5.32ZM21.4679 6.976V7.976H22.3974L22.4653 7.04897L21.4679 6.976ZM18.3239 6.976L17.325 6.93059L17.2775 7.976H18.3239V6.976ZM19.1159 4.264L19.9589 4.80206L19.9639 4.794L19.1159 4.264ZM21.0839 2.512L20.6506 1.61075L20.6506 1.61075L21.0839 2.512ZM26.8919 2.536L26.4306 3.42322L26.4376 3.42688L26.4447 3.43043L26.8919 2.536ZM28.7159 4.168L27.8602 4.68545L27.8657 4.69435L28.7159 4.168ZM28.9559 8.128L28.0614 7.68075L28.0558 7.69244L28.9559 8.128ZM27.9959 9.376L28.6391 10.1417L28.6391 10.1417L27.9959 9.376ZM26.6279 10.12L26.3297 9.16552L26.4556 11.105L26.6279 10.12ZM28.2839 10.84L27.6625 11.6235L27.669 11.6286L27.6755 11.6336L28.2839 10.84ZM29.3879 12.256L28.4741 12.6621L28.481 12.6776L28.4884 12.6929L29.3879 12.256ZM29.1239 16.744L29.9878 17.2479L29.9922 17.2401L29.1239 16.744ZM27.1559 18.592L26.6828 17.711L26.6828 17.711L27.1559 18.592ZM23.9639 18.288C23.0013 18.288 22.1397 18.1117 21.3656 17.7722L20.5623 19.6038C21.6122 20.0643 22.7506 20.288 23.9639 20.288V18.288ZM21.3656 17.7722C20.6258 17.4477 20.0483 16.9637 19.612 16.3093L17.9479 17.4187C18.5996 18.3963 19.4781 19.1283 20.5623 19.6038L21.3656 17.7722ZM19.612 16.3093C19.1977 15.6879 18.9441 14.8527 18.9156 13.7424L16.9163 13.7936C16.9518 15.1793 17.2741 16.4081 17.9479 17.4187L19.612 16.3093ZM17.9159 14.768H21.1079V12.768H17.9159V14.768ZM20.1084 13.7983C20.1285 14.4632 20.2814 15.0921 20.5802 15.6683L22.3557 14.7477C22.2065 14.4599 22.1193 14.1288 22.1075 13.7377L20.1084 13.7983ZM20.5875 15.6821C20.8978 16.2585 21.3432 16.7226 21.9038 17.0677L22.952 15.3643C22.6807 15.1974 22.486 14.9895 22.3484 14.7339L20.5875 15.6821ZM21.9423 17.0902C22.5534 17.4297 23.2487 17.576 23.9879 17.576V15.576C23.5111 15.576 23.1665 15.4823 22.9136 15.3418L21.9423 17.0902ZM23.9879 17.576C24.6796 17.576 25.336 17.4374 25.9078 17.1038L24.9001 15.3762C24.7039 15.4906 24.4162 15.576 23.9879 15.576V17.576ZM25.8925 17.1125C26.4383 16.8069 26.8808 16.3849 27.1865 15.8441L25.4454 14.8599C25.335 15.0551 25.1696 15.2251 24.9153 15.3675L25.8925 17.1125ZM27.1865 15.8441C27.4903 15.3065 27.6279 14.7087 27.6279 14.08H25.6279C25.6279 14.4113 25.5576 14.6615 25.4454 14.8599L27.1865 15.8441ZM27.6279 14.08C27.6279 13.3532 27.449 12.6691 27.036 12.086L25.4039 13.242C25.5349 13.4269 25.6279 13.6868 25.6279 14.08H27.6279ZM27.036 12.086C26.636 11.5214 26.0835 11.1208 25.4289 10.8674L24.7069 12.7326C25.0444 12.8632 25.2598 13.0386 25.4039 13.242L27.036 12.086ZM25.4655 10.8824C24.8353 10.6093 24.1349 10.488 23.3879 10.488V12.488C23.9209 12.488 24.3406 12.5747 24.6703 12.7176L25.4655 10.8824ZM23.3879 10.488H22.1399V12.488H23.3879V10.488ZM23.1399 11.488V8.824H21.1399V11.488H23.1399ZM22.1399 9.824H23.3879V7.824H22.1399V9.824ZM23.3879 9.824C24.3226 9.824 25.1834 9.6129 25.9106 9.12805L24.8012 7.46395C24.4725 7.6831 24.0213 7.824 23.3879 7.824V9.824ZM25.9277 9.1164C26.7591 8.53696 27.1479 7.66583 27.1479 6.664H25.1479C25.1479 7.10217 25.0088 7.31903 24.7841 7.4756L25.9277 9.1164ZM27.1479 6.664C27.1479 5.81309 26.8564 5.04496 26.225 4.46407L24.8709 5.93593C25.0395 6.09104 25.1479 6.29891 25.1479 6.664H27.1479ZM26.2398 4.47801C25.624 3.88785 24.8227 3.648 23.9639 3.648V5.648C24.4491 5.648 24.7039 5.77615 24.856 5.92199L26.2398 4.47801ZM23.9639 3.648C22.9922 3.648 22.1069 3.93847 21.4441 4.62586L22.8838 6.01413C23.0849 5.80553 23.3997 5.648 23.9639 5.648V3.648ZM21.4311 4.63955C20.8484 5.26714 20.5338 6.03877 20.4706 6.90302L22.4653 7.04897C22.498 6.60123 22.6475 6.26886 22.8967 6.00045L21.4311 4.63955ZM21.4679 5.976H18.3239V7.976H21.4679V5.976ZM19.3229 7.02141C19.3644 6.10793 19.5892 5.38112 19.9589 4.80204L18.273 3.72596C17.6826 4.65088 17.3794 5.73207 17.325 6.93059L19.3229 7.02141ZM19.9639 4.794C20.3416 4.18975 20.8523 3.73292 21.5172 3.41325L20.6506 1.61075C19.6515 2.09108 18.8503 2.80225 18.2679 3.734L19.9639 4.794ZM21.5172 3.41325C22.192 3.08886 22.9994 2.912 23.9639 2.912V0.912C22.7525 0.912 21.6399 1.13514 20.6506 1.61075L21.5172 3.41325ZM23.9639 2.912C24.9987 2.912 25.8071 3.09902 26.4306 3.42322L27.3533 1.64878C26.3767 1.14097 25.2332 0.912 23.9639 0.912V2.912ZM26.4447 3.43043C27.0953 3.75571 27.5528 4.17698 27.8602 4.68542L29.5717 3.65058C29.0471 2.78302 28.2886 2.11629 27.3392 1.64157L26.4447 3.43043ZM27.8657 4.69435C28.1805 5.20292 28.3399 5.76361 28.3399 6.4H30.3399C30.3399 5.40439 30.0834 4.47707 29.5662 3.64164L27.8657 4.69435ZM28.3399 6.4C28.3399 6.90328 28.2402 7.32331 28.0615 7.68079L29.8504 8.57521C30.1836 7.90869 30.3399 7.17672 30.3399 6.4H28.3399ZM28.0558 7.69244C27.8738 8.0686 27.6389 8.36993 27.3527 8.61029L28.6391 10.1417C29.153 9.71007 29.5581 9.1794 29.8561 8.56356L28.0558 7.69244ZM27.3527 8.61029C27.0568 8.85886 26.7188 9.04391 26.3297 9.16552L26.9262 11.0745C27.5611 10.8761 28.135 10.5651 28.6391 10.1417L27.3527 8.61029ZM26.4556 11.105C26.9477 11.1912 27.3415 11.3688 27.6625 11.6235L28.9053 10.0565C28.2984 9.57515 27.5881 9.27284 26.8003 9.13497L26.4556 11.105ZM27.6755 11.6336C28.0173 11.8956 28.283 12.2321 28.4741 12.6621L30.3017 11.8499C29.9809 11.1279 29.5106 10.5204 28.8924 10.0464L27.6755 11.6336ZM28.4884 12.6929C28.6833 13.0941 28.7959 13.588 28.7959 14.2H30.7959C30.7959 13.34 30.6366 12.5379 30.2874 11.8191L28.4884 12.6929ZM28.7959 14.2C28.7959 14.9398 28.6165 15.6165 28.2557 16.2479L29.9922 17.2401C30.5274 16.3035 30.7959 15.2842 30.7959 14.2H28.7959ZM28.2602 16.2401C27.9145 16.8327 27.4016 17.325 26.6828 17.711L27.6291 19.473C28.6383 18.931 29.4374 18.1913 29.9877 17.2479L28.2602 16.2401ZM26.6828 17.711C26.0003 18.0775 25.1092 18.288 23.9639 18.288V20.288C25.3467 20.288 26.5836 20.0345 27.6291 19.473L26.6828 17.711ZM32.4417 18.592L31.7346 19.2991L31.7424 19.307L31.7505 19.3146L32.4417 18.592ZM32.4417 15.928L33.1329 16.6506L33.1409 16.643L33.1488 16.6351L32.4417 15.928ZM35.3457 15.928L34.6386 16.6351L34.6464 16.643L34.6545 16.6506L35.3457 15.928ZM35.3457 18.592L36.0369 19.3146L36.0449 19.307L36.0528 19.2991L35.3457 18.592ZM33.9057 18.12C33.502 18.12 33.2796 18.0097 33.1329 17.8694L31.7505 19.3146C32.3397 19.8783 33.0933 20.12 33.9057 20.12V18.12ZM33.1488 17.8849C32.9714 17.7075 32.8897 17.5151 32.8897 17.248H30.8897C30.8897 18.0369 31.176 18.7405 31.7346 19.2991L33.1488 17.8849ZM32.8897 17.248C32.8897 16.9816 32.9702 16.8063 33.1329 16.6506L31.7505 15.2054C31.1772 15.7537 30.8897 16.4584 30.8897 17.248H32.8897ZM33.1488 16.6351C33.2977 16.4862 33.5147 16.376 33.9057 16.376V14.376C33.0806 14.376 32.3216 14.6338 31.7346 15.2209L33.1488 16.6351ZM33.9057 16.376C34.2722 16.376 34.4844 16.481 34.6386 16.6351L36.0528 15.2209C35.4709 14.639 34.7232 14.376 33.9057 14.376V16.376ZM34.6545 16.6506C34.8172 16.8063 34.8977 16.9816 34.8977 17.248H36.8977C36.8977 16.4584 36.6102 15.7537 36.0369 15.2054L34.6545 16.6506ZM34.8977 17.248C34.8977 17.5151 34.816 17.7075 34.6386 17.8849L36.0528 19.2991C36.6114 18.7405 36.8977 18.0369 36.8977 17.248H34.8977ZM34.6545 17.8694C34.5027 18.0145 34.2851 18.12 33.9057 18.12V20.12C34.7103 20.12 35.4527 19.8735 36.0369 19.3146L34.6545 17.8694Z" fill="#716F73" mask="url(#path-1-outside-1_6390_116)"/>
</svg>
