<svg width="39" height="21" viewBox="0 0 39 21" fill="none" xmlns="http://www.w3.org/2000/svg">
<mask id="path-1-outside-1_6390_121" maskUnits="userSpaceOnUse" x="0" y="0" width="39" height="21" fill="black">
<rect fill="white" width="39" height="21"/>
<path d="M8.568 19.288C7 19.288 5.656 18.92 4.536 18.184C3.432 17.448 2.576 16.432 1.968 15.136C1.376 13.824 1.08 12.312 1.08 10.6C1.08 8.888 1.376 7.384 1.968 6.088C2.576 4.776 3.432 3.752 4.536 3.016C5.656 2.28 7 1.912 8.568 1.912C10.12 1.912 11.448 2.28 12.552 3.016C13.672 3.752 14.528 4.776 15.12 6.088C15.728 7.384 16.032 8.888 16.032 10.6C16.032 12.312 15.728 13.824 15.12 15.136C14.528 16.432 13.672 17.448 12.552 18.184C11.448 18.92 10.12 19.288 8.568 19.288ZM8.544 16.384C9.376 16.384 10.104 16.152 10.728 15.688C11.352 15.208 11.84 14.536 12.192 13.672C12.544 12.808 12.72 11.784 12.72 10.6C12.72 9.4 12.544 8.376 12.192 7.528C11.84 6.664 11.352 6 10.728 5.536C10.104 5.072 9.376 4.84 8.544 4.84C7.728 4.84 7 5.072 6.36 5.536C5.736 6 5.248 6.664 4.896 7.528C4.544 8.376 4.368 9.4 4.368 10.6C4.368 11.784 4.544 12.808 4.896 13.672C5.248 14.536 5.736 15.208 6.36 15.688C7 16.152 7.728 16.384 8.544 16.384ZM26.1239 19V15.952H17.8919V13.384L25.7159 2.2H29.3639V13.144H31.5479V15.952H29.3639V19H26.1239ZM21.3479 13.144H26.3399V5.776L21.3479 13.144ZM35.101 19.12C34.493 19.12 34.005 18.944 33.637 18.592C33.269 18.224 33.085 17.776 33.085 17.248C33.085 16.72 33.269 16.28 33.637 15.928C34.005 15.56 34.493 15.376 35.101 15.376C35.693 15.376 36.173 15.56 36.541 15.928C36.909 16.28 37.093 16.72 37.093 17.248C37.093 17.776 36.909 18.224 36.541 18.592C36.173 18.944 35.693 19.12 35.101 19.12Z"/>
</mask>
<path d="M4.536 18.184L3.98129 19.0161L3.98682 19.0197L4.536 18.184ZM1.968 15.136L1.05649 15.5473L1.05954 15.554L1.06268 15.5607L1.968 15.136ZM1.968 6.088L1.06068 5.66753L1.0584 5.6725L1.968 6.088ZM4.536 3.016L3.98681 2.18028L3.9813 2.18395L4.536 3.016ZM12.552 3.016L11.9973 3.84807L12.0028 3.85171L12.552 3.016ZM15.12 6.088L14.2085 6.49929L14.2115 6.50603L14.2147 6.51272L15.12 6.088ZM15.12 15.136L14.2127 14.7155L14.2104 14.7205L15.12 15.136ZM12.552 18.184L12.0028 17.3483L11.9973 17.3519L12.552 18.184ZM10.728 15.688L11.3247 16.4905L11.3312 16.4856L11.3377 16.4806L10.728 15.688ZM12.192 13.672L11.2659 13.2947L12.192 13.672ZM12.192 7.528L11.2659 7.9053L11.2684 7.91138L12.192 7.528ZM10.728 5.536L11.3247 4.73354H11.3247L10.728 5.536ZM6.36 5.536L5.77299 4.72633L5.7633 4.73354L6.36 5.536ZM4.896 7.528L5.81961 7.91139L5.82209 7.9053L4.896 7.528ZM6.36 15.688L5.75029 16.4806L5.76154 16.4893L5.77303 16.4976L6.36 15.688ZM8.568 18.288C7.16129 18.288 6.01589 17.9599 5.08518 17.3483L3.98682 19.0197C5.29611 19.8801 6.83871 20.288 8.568 20.288V18.288ZM5.0907 17.3519C4.15052 16.7252 3.41015 15.8556 2.87332 14.7113L1.06268 15.5607C1.74185 17.0084 2.71348 18.1708 3.9813 19.0161L5.0907 17.3519ZM2.87951 14.7247C2.35582 13.5641 2.08 12.1967 2.08 10.6H0.08C0.08 12.4273 0.396178 14.0839 1.05649 15.5473L2.87951 14.7247ZM2.08 10.6C2.08 9.00296 2.35594 7.64549 2.8776 6.50349L1.0584 5.6725C0.396057 7.12251 0.08 8.77304 0.08 10.6H2.08ZM2.87531 6.50846C3.4131 5.34797 4.15353 4.47283 5.0907 3.84805L3.9813 2.18395C2.71047 3.03117 1.7389 4.20403 1.06069 5.66754L2.87531 6.50846ZM5.08518 3.85171C6.01589 3.24009 7.16129 2.912 8.568 2.912V0.912C6.83871 0.912 5.29611 1.31991 3.98682 2.18029L5.08518 3.85171ZM8.568 2.912C9.95685 2.912 11.0839 3.23914 11.9973 3.84805L13.1067 2.18395C11.8121 1.32086 10.2832 0.912 8.568 0.912V2.912ZM12.0028 3.85171C12.9524 4.47572 13.6885 5.34692 14.2085 6.49929L16.0315 5.67671C15.3675 4.20508 14.3916 3.02828 13.1012 2.18029L12.0028 3.85171ZM14.2147 6.51272C14.7493 7.65232 15.032 9.00643 15.032 10.6H17.032C17.032 8.76957 16.7067 7.11568 16.0253 5.66328L14.2147 6.51272ZM15.032 10.6C15.032 12.1932 14.7494 13.5573 14.2127 14.7155L16.0273 15.5565C16.7066 14.0907 17.032 12.4308 17.032 10.6H15.032ZM14.2104 14.7205C13.6914 15.8566 12.9555 16.7223 12.0028 17.3483L13.1012 19.0197C14.3885 18.1737 15.3646 17.0074 16.0296 15.5515L14.2104 14.7205ZM11.9973 17.3519C11.0839 17.9609 9.95685 18.288 8.568 18.288V20.288C10.2832 20.288 11.8121 19.8791 13.1067 19.0161L11.9973 17.3519ZM8.544 17.384C9.57499 17.384 10.5158 17.0919 11.3247 16.4905L10.1313 14.8855C9.69219 15.2121 9.17701 15.384 8.544 15.384V17.384ZM11.3377 16.4806C12.1261 15.8742 12.7117 15.0468 13.1181 14.0493L11.2659 13.2947C10.9683 14.0252 10.5779 14.5418 10.1183 14.8954L11.3377 16.4806ZM13.1181 14.0493C13.5301 13.038 13.72 11.8799 13.72 10.6H11.72C11.72 11.6881 11.5579 12.578 11.2659 13.2947L13.1181 14.0493ZM13.72 10.6C13.72 9.30686 13.5309 8.14522 13.1156 7.14462L11.2684 7.91138C11.5571 8.60678 11.72 9.49314 11.72 10.6H13.72ZM13.1181 7.1507C12.711 6.15153 12.1221 5.32651 11.3247 4.73354L10.1313 6.33846C10.5819 6.67349 10.969 7.17647 11.2659 7.9053L13.1181 7.1507ZM11.3247 4.73354C10.5158 4.13205 9.57499 3.84 8.544 3.84V5.84C9.17701 5.84 9.69219 6.01195 10.1313 6.33846L11.3247 4.73354ZM8.544 3.84C7.52444 3.84 6.58952 4.13443 5.77303 4.72639L6.94697 6.34561C7.41048 6.00956 7.93156 5.84 8.544 5.84V3.84ZM5.7633 4.73354C4.96586 5.32651 4.37698 6.15153 3.96991 7.1507L5.82209 7.9053C6.11902 7.17647 6.50615 6.67349 6.9567 6.33846L5.7633 4.73354ZM3.97241 7.14462C3.55707 8.14522 3.368 9.30686 3.368 10.6H5.368C5.368 9.49314 5.53093 8.60678 5.81959 7.91138L3.97241 7.14462ZM3.368 10.6C3.368 11.8799 3.5579 13.038 3.96991 14.0493L5.82209 13.2947C5.5301 12.578 5.368 11.6881 5.368 10.6H3.368ZM3.96991 14.0493C4.37629 15.0468 4.9619 15.8742 5.75029 16.4806L6.96971 14.8954C6.5101 14.5418 6.11971 14.0252 5.82209 13.2947L3.96991 14.0493ZM5.77303 16.4976C6.58952 17.0896 7.52444 17.384 8.544 17.384V15.384C7.93156 15.384 7.41048 15.2144 6.94697 14.8784L5.77303 16.4976ZM26.1239 19H25.1239V20H26.1239V19ZM26.1239 15.952H27.1239V14.952H26.1239V15.952ZM17.8919 15.952H16.8919V16.952H17.8919V15.952ZM17.8919 13.384L17.0725 12.8108L16.8919 13.0689V13.384H17.8919ZM25.7159 2.2V1.2H25.1951L24.8965 1.62677L25.7159 2.2ZM29.3639 2.2H30.3639V1.2H29.3639V2.2ZM29.3639 13.144H28.3639V14.144H29.3639V13.144ZM31.5479 13.144H32.5479V12.144H31.5479V13.144ZM31.5479 15.952V16.952H32.5479V15.952H31.5479ZM29.3639 15.952V14.952H28.3639V15.952H29.3639ZM29.3639 19V20H30.3639V19H29.3639ZM21.3479 13.144L20.5201 12.5831L19.4625 14.144H21.3479V13.144ZM26.3399 13.144V14.144H27.3399V13.144H26.3399ZM26.3399 5.776H27.3399V2.51721L25.5121 5.21509L26.3399 5.776ZM27.1239 19V15.952H25.1239V19H27.1239ZM26.1239 14.952H17.8919V16.952H26.1239V14.952ZM18.8919 15.952V13.384H16.8919V15.952H18.8919ZM18.7113 13.9572L26.5353 2.77322L24.8965 1.62677L17.0725 12.8108L18.7113 13.9572ZM25.7159 3.2H29.3639V1.2H25.7159V3.2ZM28.3639 2.2V13.144H30.3639V2.2H28.3639ZM29.3639 14.144H31.5479V12.144H29.3639V14.144ZM30.5479 13.144V15.952H32.5479V13.144H30.5479ZM31.5479 14.952H29.3639V16.952H31.5479V14.952ZM28.3639 15.952V19H30.3639V15.952H28.3639ZM29.3639 18H26.1239V20H29.3639V18ZM21.3479 14.144H26.3399V12.144H21.3479V14.144ZM27.3399 13.144V5.776H25.3399V13.144H27.3399ZM25.5121 5.21509L20.5201 12.5831L22.1758 13.7049L27.1678 6.33691L25.5121 5.21509ZM33.637 18.592L32.9299 19.2991L32.9377 19.307L32.9458 19.3146L33.637 18.592ZM33.637 15.928L34.3282 16.6506L34.3363 16.643L34.3441 16.6351L33.637 15.928ZM36.541 15.928L35.8339 16.6351L35.8418 16.643L35.8498 16.6506L36.541 15.928ZM36.541 18.592L37.2322 19.3146L37.2402 19.307L37.2481 19.2991L36.541 18.592ZM35.101 18.12C34.6973 18.12 34.4749 18.0097 34.3282 17.8694L32.9458 19.3146C33.535 19.8783 34.2887 20.12 35.101 20.12V18.12ZM34.3441 17.8849C34.1667 17.7075 34.085 17.5151 34.085 17.248H32.085C32.085 18.0369 32.3713 18.7405 32.9299 19.2991L34.3441 17.8849ZM34.085 17.248C34.085 16.9816 34.1655 16.8063 34.3282 16.6506L32.9458 15.2054C32.3725 15.7537 32.085 16.4584 32.085 17.248H34.085ZM34.3441 16.6351C34.4931 16.4862 34.7101 16.376 35.101 16.376V14.376C34.2759 14.376 33.5169 14.6338 32.9299 15.2209L34.3441 16.6351ZM35.101 16.376C35.4675 16.376 35.6797 16.481 35.8339 16.6351L37.2481 15.2209C36.6663 14.639 35.9185 14.376 35.101 14.376V16.376ZM35.8498 16.6506C36.0125 16.8063 36.093 16.9816 36.093 17.248H38.093C38.093 16.4584 37.8055 15.7537 37.2322 15.2054L35.8498 16.6506ZM36.093 17.248C36.093 17.5151 36.0113 17.7075 35.8339 17.8849L37.2481 19.2991C37.8067 18.7405 38.093 18.0369 38.093 17.248H36.093ZM35.8498 17.8694C35.698 18.0145 35.4804 18.12 35.101 18.12V20.12C35.9056 20.12 36.648 19.8735 37.2322 19.3146L35.8498 17.8694Z" fill="#716F73" mask="url(#path-1-outside-1_6390_121)"/>
</svg>
